<?xml version="1.0" encoding="UTF-8" standalone="no"?>
<!-- Created with Inkscape (http://www.inkscape.org/) -->

<svg
   width="57.480881"
   height="60"
   viewBox="0 0 57.480882 59.999999"
   version="1.1"
   id="svg1"
   xml:space="preserve"
   sodipodi:docname="window-shutter-group-closed.svg"
   inkscape:version="1.3 (0e150ed6c4, 2023-07-21)"
   inkscape:export-filename="window-shutter-group-closed.png"
   inkscape:export-xdpi="96"
   inkscape:export-ydpi="96"
   xmlns:inkscape="http://www.inkscape.org/namespaces/inkscape"
   xmlns:sodipodi="http://sodipodi.sourceforge.net/DTD/sodipodi-0.dtd"
   xmlns="http://www.w3.org/2000/svg"
   xmlns:svg="http://www.w3.org/2000/svg"><defs
     id="defs1" /><sodipodi:namedview
     id="namedview1"
     pagecolor="#ffffff"
     bordercolor="#000000"
     borderopacity="0.25"
     inkscape:showpageshadow="2"
     inkscape:pageopacity="0.0"
     inkscape:pagecheckerboard="0"
     inkscape:deskcolor="#d1d1d1"
     inkscape:zoom="14.177842"
     inkscape:cx="33.044521"
     inkscape:cy="26.414457"
     inkscape:window-width="1920"
     inkscape:window-height="1009"
     inkscape:window-x="-8"
     inkscape:window-y="-8"
     inkscape:window-maximized="1"
     inkscape:current-layer="svg1" /><path
     id="path1"
     style="fill:#000000;fill-opacity:1;stroke-width:1.0101"
     d="m 0,0 v 4.9442323 4.9442314 l 0.01983838,0.063162 H 2.5587687 V 24.917949 39.884273 h 2.405302 2.4053021 V 24.917948 9.9516243 h 12.6946492 12.69465 v 9.0866967 h 2.405302 2.405302 V 9.9516243 h 2.53893 0.02035 V 5.0073919 0.06315957 H 20.064019 Z m 10.041927,12.624182 v 2.405302 2.405302 H 20.064019 30.086111 V 15.029484 12.624182 H 20.064019 Z m 0,7.483161 v 2.405302 2.405303 h 4.543349 v -2.405303 -2.405302 z m 7.310907,0.0084 v 4.944232 4.944232 l 0.01984,0.06316 h 2.53893 V 45.033676 60 h 2.405302 2.405302 V 45.033643 30.06732 h 12.69465 12.69465 v 14.966323 14.966325 h 2.405302 2.405302 V 45.033643 30.06732 h 2.538929 0.01984 V 25.123088 20.178855 H 37.416854 Z m -7.310907,7.47481 v 2.405302 2.405302 h 4.543349 v -2.405302 -2.405302 z m 17.352835,5.149372 v 2.405302 2.405302 H 37.416854 47.438945 V 35.145211 32.739909 H 37.416854 Z m -17.352835,2.333759 v 2.405302 2.405302 h 7.215906 V 37.47897 35.073668 Z m 17.352835,5.149371 v 2.405302 2.405302 H 37.416854 47.438945 V 42.628341 40.223039 H 37.416854 Z m 0,7.483163 v 2.405302 2.405302 H 37.416854 47.438945 V 50.111504 47.706202 H 37.416854 Z m 0,7.483162 v 2.405302 2.405302 H 37.416854 47.438945 V 57.594666 55.189364 H 37.416854 Z" /></svg>
