<?xml version="1.0" encoding="UTF-8" standalone="no"?>
<!-- Created with Inkscape (http://www.inkscape.org/) -->

<svg
   width="56.906091"
   height="59.400023"
   viewBox="0 0 56.906091 59.400023"
   version="1.1"
   id="svg1"
   xml:space="preserve"
   xmlns="http://www.w3.org/2000/svg"
   xmlns:svg="http://www.w3.org/2000/svg"><path
       id="path1"
       style="fill:#d40000;fill-opacity:1"
       d="m 33.620358,38.115 v 4.894792 4.894791 l 0.01964,0.06253 h 2.513542 v 14.816666 14.816667 h 2.38125 2.38125 V 62.783778 47.967112 h 12.567708 12.567708 v 8.995833 h 2.38125 2.38125 v -8.995833 h 2.513542 0.02015 V 43.07232 38.177528 H 53.483745 Z m 9.941512,12.497945 v 2.38125 2.38125 h 9.921875 9.921875 v -2.38125 -2.38125 h -9.921875 z m 0,7.408333 v 2.38125 2.38125 h 4.497917 v -2.38125 -2.38125 z m 7.237801,0.0083 v 4.894791 4.894792 l 0.01964,0.06253 h 2.513542 v 14.816666 14.816667 h 2.38125 2.38125 V 82.698325 67.881659 H 70.663061 83.23077 v 14.816666 14.816667 h 2.38125 2.38125 V 82.698325 67.881659 h 2.513541 0.01964 V 62.986867 58.092075 H 70.663058 Z m -7.237801,7.400065 v 2.38125 2.38125 h 4.497917 v -2.38125 -2.38125 z m 17.179313,5.09788 v 2.38125 2.38125 h 9.921875 9.921875 v -2.38125 -2.38125 H 70.663058 Z M 43.56187,72.837945 v 2.38125 2.38125 h 7.14375 v -2.38125 -2.38125 z m 17.179313,5.09788 v 2.38125 2.38125 h 9.921875 9.921875 v -2.38125 -2.38125 h -9.921875 z m 0,7.408334 v 2.38125 2.38125 h 9.921875 9.921875 v -2.38125 -2.38125 h -9.921875 z m 0,7.408333 v 2.38125 2.38125 h 9.921875 9.921875 v -2.38125 -2.38125 h -9.921875 z" /></svg>
