<?xml version="1.0" encoding="UTF-8" standalone="no"?>
<!-- Created with Inkscape (http://www.inkscape.org/) -->

<svg
   width="57.481392"
   height="60"
   viewBox="0 0 57.481394 60"
   version="1.1"
   id="svg1"
   xml:space="preserve"
   sodipodi:docname="window-shutter-group-mid-opened.svg"
   inkscape:version="1.3 (0e150ed6c4, 2023-07-21)"
   inkscape:export-filename="window-shutter-group-mid-opened.png"
   inkscape:export-xdpi="96"
   inkscape:export-ydpi="96"
   xmlns:inkscape="http://www.inkscape.org/namespaces/inkscape"
   xmlns:sodipodi="http://sodipodi.sourceforge.net/DTD/sodipodi-0.dtd"
   xmlns="http://www.w3.org/2000/svg"
   xmlns:svg="http://www.w3.org/2000/svg"><sodipodi:namedview
     id="namedview1"
     pagecolor="#ffffff"
     bordercolor="#000000"
     borderopacity="0.25"
     inkscape:showpageshadow="2"
     inkscape:pageopacity="0.0"
     inkscape:pagecheckerboard="0"
     inkscape:deskcolor="#d1d1d1"
     inkscape:zoom="13.989893"
     inkscape:cx="28.484849"
     inkscape:cy="29.700012"
     inkscape:window-width="1920"
     inkscape:window-height="1009"
     inkscape:window-x="-8"
     inkscape:window-y="-8"
     inkscape:window-maximized="1"
     inkscape:current-layer="svg1" /><defs
     id="defs1" /><g
     id="layer1"
     transform="matrix(1.0101006,0,0,1.0101006,-33.959754,-38.49997)"><path
       id="path1"
       style="fill:#000000"
       d="m 33.62017,38.114986 v 4.894792 4.894791 l 0.02015,0.06253 h 2.513542 v 14.816667 14.816666 h 2.38125 2.38125 V 62.783765 47.967098 H 53.48407 66.051778 v 8.995833 h 2.38125 2.38125 v -8.995833 h 2.513542 0.01964 V 43.072306 38.177515 H 53.484074 Z m 9.942029,12.497945 v 2.38125 2.38125 h 9.921875 9.921875 v -2.38125 -2.38125 h -9.921875 z m 0,7.408334 v 2.38125 2.38125 h 4.497917 v -2.38125 -2.38125 z m 7.237284,0.0083 v 4.894792 4.894791 l 0.01964,0.06253 h 2.513542 v 14.816666 14.816667 h 2.38125 2.38125 V 82.698311 67.881645 H 70.66287 83.230579 v 14.816666 14.816667 h 2.38125 2.38125 V 82.698311 67.881645 h 2.513541 0.02015 v -4.894792 -4.894792 h -19.8639 z m 9.941512,12.497945 v 2.38125 2.38125 h 9.921875 9.921875 V 72.90876 70.52751 H 70.66287 Z m 0,7.408333 v 2.38125 2.38125 h 9.921875 9.921875 v -2.38125 -2.38125 H 70.66287 Z" /></g></svg>
