<?xml version="1.0" encoding="UTF-8" standalone="no"?>
<!-- Created with Inkscape (http://www.inkscape.org/) -->

<svg
   width="56.906094"
   height="59.400024"
   viewBox="0 0 56.906095 59.400023"
   version="1.1"
   id="svg1"
   xml:space="preserve"
   sodipodi:docname="window-shutter-group-closed.svg"
   inkscape:version="1.3 (0e150ed6c4, 2023-07-21)"
   xmlns:inkscape="http://www.inkscape.org/namespaces/inkscape"
   xmlns:sodipodi="http://sodipodi.sourceforge.net/DTD/sodipodi-0.dtd"
   xmlns="http://www.w3.org/2000/svg"
   xmlns:svg="http://www.w3.org/2000/svg"><defs
     id="defs1" /><sodipodi:namedview
     id="namedview1"
     pagecolor="#ffffff"
     bordercolor="#000000"
     borderopacity="0.25"
     inkscape:showpageshadow="2"
     inkscape:pageopacity="0.0"
     inkscape:pagecheckerboard="0"
     inkscape:deskcolor="#d1d1d1"
     inkscape:zoom="14.177842"
     inkscape:cx="-7.7938517"
     inkscape:cy="-10.615155"
     inkscape:window-width="3440"
     inkscape:window-height="1369"
     inkscape:window-x="1912"
     inkscape:window-y="-8"
     inkscape:window-maximized="1"
     inkscape:current-layer="svg1" /><path
     id="path1"
     style="fill:#000000;fill-opacity:1"
     d="m 0,0 v 4.894792 4.894791 l 0.01964,0.06253 h 2.513542 v 14.816666 14.816667 h 2.38125 2.38125 V 24.668778 9.852112 H 19.86339 32.431098 v 8.995833 h 2.38125 2.38125 V 9.852112 h 2.513542 0.02015 V 4.95732 0.062528 H 19.863387 Z m 9.941512,12.497945 v 2.38125 2.38125 h 9.921875 9.921875 v -2.38125 -2.38125 h -9.921875 z m 0,7.408333 v 2.38125 2.38125 h 4.497917 v -2.38125 -2.38125 z m 7.237801,0.0083 v 4.894791 4.894792 l 0.01964,0.06253 h 2.513542 v 14.816666 14.816667 h 2.38125 2.38125 V 44.583325 29.766659 h 12.567708 12.567709 v 14.816666 14.816667 h 2.38125 2.38125 V 44.583325 29.766659 h 2.513541 0.01964 V 24.871867 19.977075 H 37.0427 Z m -7.237801,7.400065 v 2.38125 2.38125 h 4.497917 v -2.38125 -2.38125 z m 17.179313,5.09788 v 2.38125 2.38125 h 9.921875 9.921875 v -2.38125 -2.38125 H 37.0427 Z M 9.941512,34.722945 v 2.38125 2.38125 h 7.14375 v -2.38125 -2.38125 z m 17.179313,5.09788 v 2.38125 2.38125 h 9.921875 9.921875 v -2.38125 -2.38125 H 37.0427 Z m 0,7.408334 v 2.38125 2.38125 h 9.921875 9.921875 v -2.38125 -2.38125 H 37.0427 Z m 0,7.408333 v 2.38125 2.38125 h 9.921875 9.921875 v -2.38125 -2.38125 H 37.0427 Z" /></svg>
