<?xml version="1.0" encoding="UTF-8" standalone="no"?>
<!-- Created with Inkscape (http://www.inkscape.org/) -->

<svg
   width="39.727177"
   height="39.485255"
   viewBox="0 0 39.727177 39.485255"
   version="1.1"
   id="svg1"
   xml:space="preserve"
   xmlns="http://www.w3.org/2000/svg"
   xmlns:svg="http://www.w3.org/2000/svg"><defs
     id="defs1" /><g
     id="layer1"
     transform="translate(-49.211972,-58.029726)"><path
       id="path1"
       style="fill:#000000"
       d="m 49.211972,58.029726 v 4.894792 4.894791 l 0.01964,0.06253 h 2.513542 v 14.816666 14.816667 h 2.38125 2.38125 V 82.698504 67.881838 H 69.075362 81.64307 v 14.816666 14.816667 h 2.38125 2.38125 V 82.698504 67.881838 h 2.513542 0.02015 V 62.987046 58.092254 H 69.075359 Z m 9.941512,12.497945 v 2.38125 2.38125 h 9.921875 9.921875 v -2.38125 -2.38125 h -9.921875 z m 0,7.408333 v 2.38125 2.38125 h 9.921875 9.921875 v -2.38125 -2.38125 h -9.921875 z m 0,7.408334 v 2.38125 2.38125 h 9.921875 9.921875 v -2.38125 -2.38125 h -9.921875 z m 0,7.408333 v 2.38125 2.38125 h 9.921875 9.921875 v -2.38125 -2.38125 h -9.921875 z" /></g></svg>
